<?xml version="1.0" encoding="utf-8"?>
<!-- Generator: Adobe Illustrator 28.2.0, SVG Export Plug-In . SVG Version: 6.00 Build 0)  -->
<svg version="1.1" id="Layer_1" xmlns="http://www.w3.org/2000/svg" xmlns:xlink="http://www.w3.org/1999/xlink" x="0px" y="0px"
	 viewBox="0 0 490 241.8" style="enable-background:new 0 0 490 241.8;" xml:space="preserve">
<style type="text/css">
	.st0{display:none;fill:none;stroke:#DDDDDD;stroke-miterlimit:10;}
	.st1{display:none;}
	.st2{fill:none;}
	.st3{font-family:'Helvetica';}
	.st4{font-size:10px;}
	.st5{fill:#803161;}
	.st6{fill:#CFA2C7;}
	.st7{fill:#FFFFFF;}
	.st8{font-size:11px;}
</style>
<path pointer-events="none" class="st0" d="M93.5,205.3"/>
<path pointer-events="none" class="st1" d="M93.5,205.3"/>
<path pointer-events="none" class="st2" d="M93.5,45.3L93.5,45.3L93.5,45.3L93.5,45.3z"/>
<text transform="matrix(1 0 0 1 21.7441 57.7746)" class="st3 st4">C+7 or greater</text>
<text transform="matrix(1 0 0 1 35.3574 77.7746)" class="st3 st4">C+3 to C+7</text>
<text transform="matrix(1 0 0 1 35.3574 97.7746)" class="st3 st4">C+1 to C+3</text>
<text transform="matrix(1 0 0 1 39.8008 117.7746)" class="st3 st4">I+1 to C+1</text>
<text transform="matrix(1 0 0 1 44.2441 137.7746)" class="st3 st4">I+1 to I+3</text>
<text transform="matrix(1 0 0 1 44.2441 157.7746)" class="st3 st4">I+3 to I+5</text>
<text transform="matrix(1 0 0 1 38.6826 177.7746)" class="st3 st4">I+5 to I+10</text>
<text transform="matrix(1 0 0 1 20.626 197.7746)" class="st3 st4">I+10 or greater</text>
<path pointer-events="none" class="st1" d="M93.5,45.3"/>
<path class="st5" d="M93,45.8h228v18H93V45.8z"/>
<path class="st5" d="M93,65.8h189v18H93V65.8z"/>
<path class="st5" d="M93,85.8h183v18H93V85.8z"/>
<path class="st5" d="M93,105.8h105v18H93V105.8z"/>
<path class="st5" d="M93,125.8h75v18H93V125.8z"/>
<path class="st5" d="M93,145.8h54v18H93V145.8z"/>
<path class="st5" d="M93,165.8h21v18H93V165.8z"/>
<path class="st5" d="M93,185.8L93,185.8v18l0,0V185.8z"/>
<path class="st6" d="M321,45.8h72v18h-72V45.8z"/>
<path class="st6" d="M282,65.8h111v18H282V65.8z"/>
<path class="st6" d="M276,85.8h117v18H276V85.8z"/>
<path class="st6" d="M198,105.8h195v18H198V105.8z"/>
<path class="st6" d="M168,125.8h225v18H168V125.8z"/>
<path class="st6" d="M147,145.8h246v18H147V145.8z"/>
<path class="st6" d="M114,165.8h279v18H114V165.8z"/>
<path class="st6" d="M93,185.8h300v18H93V185.8z"/>
<text transform="matrix(1 0 0 1 181.3823 77.7746)" class="st7 st3 st8">63</text>
<text transform="matrix(1 0 0 1 196.2954 57.7746)" class="st7 st3 st8">76%</text>
<text transform="matrix(1 0 0 1 178.3823 100.8815)" class="st7 st3 st8">61</text>
<text transform="matrix(1 0 0 1 139.3824 117.9836)" class="st7 st3 st8">35</text>
<text transform="matrix(1 0 0 1 124.3826 137.9836)" class="st7 st3 st8">25</text>
<text transform="matrix(1 0 0 1 113.8823 157.965)" class="st7 st3 st8">18</text>
<text transform="matrix(1 0 0 1 100.4412 177.9836)" class="st7 st3 st8">7</text>
<text transform="matrix(1 0 0 1 346.2954 57.9836)" class="st7 st3 st8">24</text>
<text transform="matrix(1 0 0 1 331.3823 77.9836)" class="st7 st3 st8">37</text>
<text transform="matrix(1 0 0 1 328.3823 97.9836)" class="st7 st3 st8">39</text>
<text transform="matrix(1 0 0 1 289.3823 117.7746)" class="st7 st3 st8">65</text>
<text transform="matrix(1 0 0 1 274.3823 137.7746)" class="st7 st3 st8">75</text>
<text transform="matrix(1 0 0 1 263.8823 157.7746)" class="st7 st3 st8">82</text>
<text transform="matrix(1 0 0 1 247.3823 177.7746)" class="st7 st3 st8">93</text>
<text transform="matrix(1 0 0 1 398 197.7746)" class="st7 st3 st8">100.0</text>
<path pointer-events="none" class="st2" d="M411,44.8h74v40h-74V44.8z"/>
<path pointer-events="none" class="st2" d="M411,60.8L411,60.8L411,60.8L411,60.8z"/>
<text transform="matrix(1 0 0 1 151.5837 34.8107)" class="st3 st4">Incumbent Defeated</text>
<path pointer-events="none" class="st1" d="M411,60.8"/>
<text transform="matrix(1 0 0 1 321 34.8107)" class="st3 st4">Incumbent Survives</text>
<path pointer-events="none" class="st1" d="M411,73.8"/>
<path pointer-events="none" class="st1" d="M411,60.8"/>
<path pointer-events="none" class="st1" d="M411,44.8"/>
<path pointer-events="none" class="st2" d="M243,27.8L243,27.8L243,27.8L243,27.8z"/>
<path pointer-events="none" class="st1" d="M243,27.8"/>
<path class="st1" d="M93,44.8"/>
<text transform="matrix(1 0 0 1 224.1982 199.9943)" class="st7 st3 st8">100</text>
</svg>
