<?xml version="1.0" encoding="utf-8"?>
<!-- Generator: Adobe Illustrator 28.2.0, SVG Export Plug-In . SVG Version: 6.00 Build 0)  -->
<svg version="1.1" id="Layer_1" xmlns="http://www.w3.org/2000/svg" xmlns:xlink="http://www.w3.org/1999/xlink" x="0px" y="0px"
	 viewBox="0 0 779.1 497.6" style="enable-background:new 0 0 779.1 497.6;" xml:space="preserve">
<style type="text/css">
	.st0{fill:#4D4D4D;}
	.st1{font-family:'LucidaGrande';}
	.st2{font-size:13.5214px;}
	.st3{fill:none;}
	.st4{clip-path:url(#SVGID_00000152976449603095742340000002170503357174724225_);fill:#793566;}
	.st5{clip-path:url(#SVGID_00000039814473602496556440000007967449698641577392_);fill:#793566;}
	.st6{fill:#793566;}
	.st7{clip-path:url(#SVGID_00000094578194553233892530000007185283955619891884_);enable-background:new    ;}
	.st8{font-size:23.0478px;}
	.st9{fill:#C49CAC;}
	.st10{clip-path:url(#SVGID_00000157288981664733120030000013476552086910892932_);enable-background:new    ;}
</style>
<text transform="matrix(0.9651 0 0 1 55.1673 433.5014)" class="st0 st1 st2">I+10 or greater</text>
<path class="st3" d="M126,575h546.1v-680.4H126V575z"/>
<text transform="matrix(0.9651 0 0 1 660.7982 471.8315)" class="st0 st1 st2">100</text>
<rect x="126" y="-105.5" class="st3" width="546.1" height="680.4"/>
<rect x="126" y="-105.5" class="st3" width="546.1" height="680.4"/>
<text transform="matrix(0.9651 0 0 1 78.6859 378.1811)" class="st0 st1 st2">I+5 to I+10</text>
<text transform="matrix(0.9651 0 0 1 86.9378 322.8618)" class="st0 st1 st2">I+3 to I+5</text>
<text transform="matrix(0.9651 0 0 1 86.9378 267.5415)" class="st0 st1 st2">I+1 to I+3</text>
<text transform="matrix(0.9651 0 0 1 81.6683 212.2202)" class="st0 st1 st2">I+1 to C+1</text>
<text transform="matrix(0.9651 0 0 1 76.3987 156.8999)" class="st0 st1 st2">C+1 to C+3</text>
<text transform="matrix(0.9651 0 0 1 76.3987 101.5805)" class="st0 st1 st2">C+3 to C+7</text>
<text transform="matrix(0.9651 0 0 1 58.1497 46.2602)" class="st0 st1 st2">C+7 or greater</text>
<g>
	<defs>
		<rect id="SVGID_1_" x="126" y="-105.5" width="546.1" height="680.4"/>
	</defs>
	<clipPath id="SVGID_00000079463968800777293100000004396883570073621911_">
		<use xlink:href="#SVGID_1_"  style="overflow:visible;"/>
	</clipPath>
	<path style="clip-path:url(#SVGID_00000079463968800777293100000004396883570073621911_);fill:#793566;" d="M151.8,541.8v-33.2l0,0
		V541.8z"/>
</g>
<g>
	<defs>
		<rect id="SVGID_00000049918690218158990060000010096796990237179818_" x="178.5" y="-180.3" width="546.1" height="680.4"/>
	</defs>
	<clipPath id="SVGID_00000056395311086406559160000003368183936793728387_">
		<use xlink:href="#SVGID_00000049918690218158990060000010096796990237179818_"  style="overflow:visible;"/>
	</clipPath>
	<path style="clip-path:url(#SVGID_00000056395311086406559160000003368183936793728387_);fill:#793566;" d="M204.3,384v-33.2h34.6
		V384H204.3z"/>
</g>
<rect x="126" y="-105.5" class="st3" width="546.1" height="680.4"/>
<path class="st6" d="M178.5,334.3v-33.2h89v33.2H178.5z"/>
<rect x="126" y="-105.5" class="st3" width="546.1" height="680.4"/>
<path class="st6" d="M178.5,278.9v-33.2h123.6v33.2H178.5z"/>
<rect x="126" y="-105.5" class="st3" width="546.1" height="680.4"/>
<path class="st6" d="M178.5,223.6v-33.2h173.1v33.2H178.5z"/>
<rect x="126" y="-105.5" class="st3" width="546.1" height="680.4"/>
<path class="st6" d="M178.5,168.3v-33.2h301.6v33.2H178.5z"/>
<rect x="126" y="-105.5" class="st3" width="546.1" height="680.4"/>
<path class="st6" d="M178.5,113V79.8H490V113H178.5z"/>
<rect x="126.1" y="-105.7" class="st3" width="546" height="681"/>
<path class="st6" d="M178.5,57.3v-33h376v33H178.5z"/>
<g>
	<defs>
		<rect id="SVGID_00000076589364348571921880000009953786032136433338_" x="126" y="-105.5" width="546.1" height="680.4"/>
	</defs>
	<clipPath id="SVGID_00000129910962200169238460000010520913626430419618_">
		<use xlink:href="#SVGID_00000076589364348571921880000009953786032136433338_"  style="overflow:visible;"/>
	</clipPath>
	<g style="clip-path:url(#SVGID_00000129910962200169238460000010520913626430419618_);enable-background:new    ;">
		<text transform="matrix(0.6434 0 0 1 131.554 531.5356)" class="st1 st8">0%</text>
	</g>
</g>
<g>
	<defs>
		<rect id="SVGID_00000147204300630068119000000008638580843223298470_" x="126" y="-105.5" width="546.1" height="680.4"/>
	</defs>
	<clipPath id="SVGID_00000101072250425900336970000016896578550183292847_">
		<use xlink:href="#SVGID_00000147204300630068119000000008638580843223298470_"  style="overflow:visible;"/>
	</clipPath>
	<g style="clip-path:url(#SVGID_00000101072250425900336970000016896578550183292847_);enable-background:new    ;">
		<text transform="matrix(0.6434 0 0 1 166.1692 448.4975)" class="st1 st8">7%</text>
	</g>
</g>
<rect x="126" y="-105.5" class="st3" width="546.1" height="680.4"/>
<text transform="matrix(0.6434 0 0 1 238.0296 322.3842)" class="st1 st8">18%</text>
<rect x="126" y="-105.5" class="st3" width="546.1" height="680.4"/>
<text transform="matrix(0.6434 0 0 1 272.6448 267.0639)" class="st1 st8">25%</text>
<rect x="126" y="-105.5" class="st3" width="546.1" height="680.4"/>
<text transform="matrix(0.6434 0 0 1 322.095 211.7436)" class="st1 st8">35%</text>
<rect x="126" y="-105.5" class="st3" width="546.1" height="680.4"/>
<text transform="matrix(0.6434 0 0 1 450.6644 156.4233)" class="st1 st8">61%</text>
<rect x="126" y="-105.5" class="st3" width="546.1" height="680.4"/>
<text transform="matrix(0.6434 0 0 1 460.555 101.103)" class="st1 st8">63%</text>
<rect x="126" y="-105.5" class="st3" width="546.1" height="680.4"/>
<rect x="126" y="-105.5" class="st3" width="546.1" height="680.4"/>
<text transform="matrix(0.6434 0 0 1 514.0029 46.2602)" class="st1 st8">76%</text>
<path class="st9" d="M177.6,444.9v-33.2h494.5v33.2H177.6z"/>
<rect x="126" y="-105.5" class="st3" width="546.1" height="680.4"/>
<path class="st9" d="M212.3,389.6v-33.2h459.9v33.2H212.3z"/>
<path class="st9" d="M266.7,334.3v-33.2h405.5v33.2H266.7z"/>
<rect x="277.4" y="-105.5" class="st3" width="546.1" height="680.4"/>
<path class="st9" d="M301.3,278.9v-33.2h370.9v33.2H301.3z"/>
<rect x="327.5" y="-105.5" class="st3" width="546.1" height="680.4"/>
<path class="st9" d="M350.7,223.6v-33.2h321.4v33.2H350.7z"/>
<rect x="453.5" y="-105.5" class="st3" width="546.1" height="680.4"/>
<path class="st9" d="M479.3,168.3v-33.2h192.9v33.2H479.3z"/>
<rect x="464.4" y="-105.5" class="st3" width="546.1" height="680.4"/>
<path class="st9" d="M489.2,113V79.8h183V113H489.2z"/>
<rect x="528.6" y="-105.5" class="st3" width="546.1" height="680.4"/>
<path class="st9" d="M553.5,57.7V24.5h118.7v33.2H553.5z"/>
<g>
	<defs>
		<rect id="SVGID_00000132780334132963875580000016096868558706834620_" x="126" y="-105.5" width="546.1" height="680.4"/>
	</defs>
	<clipPath id="SVGID_00000058587609621870183430000004993581516484759706_">
		<use xlink:href="#SVGID_00000132780334132963875580000016096868558706834620_"  style="overflow:visible;"/>
	</clipPath>
	<g style="clip-path:url(#SVGID_00000058587609621870183430000004993581516484759706_);enable-background:new    ;">
		<text transform="matrix(0.6434 0 0 1 609.2776 531.478)" class="st1 st8">100%</text>
	</g>
</g>
<g>
	<defs>
		<rect id="SVGID_00000026139850768489476850000000046607415881238671_" x="126" y="-105.5" width="546.1" height="680.4"/>
	</defs>
	<clipPath id="SVGID_00000085225943697984107940000000476559240967222659_">
		<use xlink:href="#SVGID_00000026139850768489476850000000046607415881238671_"  style="overflow:visible;"/>
	</clipPath>
	<g style="clip-path:url(#SVGID_00000085225943697984107940000000476559240967222659_);enable-background:new    ;">
		<text transform="matrix(0.6434 0 0 1 584.0403 448.4975)" class="st1 st8">93%</text>
	</g>
</g>
<rect x="126" y="-105.5" class="st3" width="546.1" height="680.4"/>
<text transform="matrix(0.6434 0 0 1 556.4886 322.3842)" class="st1 st8">82%</text>
<rect x="126" y="-105.5" class="st3" width="546.1" height="680.4"/>
<text transform="matrix(0.6434 0 0 1 521.8734 267.0639)" class="st1 st8">75%</text>
<text transform="matrix(0.6434 0 0 1 472.4222 211.7436)" class="st1 st8">65%</text>
<text transform="matrix(0.6434 0 0 1 343.8538 156.4233)" class="st1 st8">39%</text>
</svg>
