<?xml version="1.0" encoding="utf-8"?>
<!-- Generator: Adobe Illustrator 28.2.0, SVG Export Plug-In . SVG Version: 6.00 Build 0)  -->
<svg version="1.1" id="Layer_1" xmlns="http://www.w3.org/2000/svg" xmlns:xlink="http://www.w3.org/1999/xlink" x="0px" y="0px"
	 viewBox="0 0 780 701.9" style="enable-background:new 0 0 780 701.9;" xml:space="preserve">
<style type="text/css">
	.st0{fill:#FFFFFF;stroke:#FFFFFF;}
	.st1{fill:#EBEBEB;}
	.st2{fill:none;}
	.st3{fill:none;stroke:#FFFFFF;stroke-linecap:square;stroke-linejoin:round;}
	.st4{fill:none;stroke:#333333;stroke-width:1.5;stroke-linecap:square;stroke-linejoin:round;}
	.st5{fill:#333333;stroke:#333333;stroke-linejoin:round;}
	.st6{fill:none;stroke:#FFFFFF;stroke-width:0.5;stroke-linecap:square;stroke-linejoin:round;}
	.st7{fill:#FFFF00;}
	.st8{fill:#808080;}
	.st9{fill:#FFFFFF;}
	.st10{fill:#F2F2F2;}
</style>
<path class="st0" d="M-0.4-42.8h460.8v-345.6H-0.4V-42.8z"/>
<path class="st1" d="M46.6-75.9h343.8v-290.5H46.6V-75.9z"/>
<rect x="46.6" y="-366.4" class="st2" width="343.8" height="290.5"/>
<path class="st3" d="M62.3-75.9v-290.5"/>
<path class="st4" d="M62.3-75.9"/>
<path id="m6d0f000896" class="st5" d="M62.3-75.9v2.8"/>
<text transform="matrix(1 0 0 1 59.474 -64.4904)" style="fill:#4D4D4D; font-family:'LucidaGrande'; font-size:8.8px;">0</text>
<rect x="46.6" y="-366.4" class="st2" width="343.8" height="290.5"/>
<path class="st3" d="M178.9-75.9v-290.5"/>
<path class="st4" d="M178.9-75.9"/>
<path id="m6d0f000896_00000031887223685459953400000000774789547842470586_" class="st5" d="M178.9-75.9v2.8"/>
<text transform="matrix(1 0 0 1 176.1064 -64.4904)" style="fill:#4D4D4D; font-family:'LucidaGrande'; font-size:8.8px;">5</text>
<rect x="46.6" y="-366.4" class="st2" width="343.8" height="290.5"/>
<path class="st3" d="M295.5-75.9v-290.5"/>
<path class="st4" d="M295.5-75.9"/>
<path id="m6d0f000896_00000148648731589717024590000007956751714483905945_" class="st5" d="M295.5-75.9v2.8"/>
<text transform="matrix(1 0 0 1 289.9567 -64.4904)" style="fill:#4D4D4D; font-family:'LucidaGrande'; font-size:8.8px;">10</text>
<rect x="46.6" y="-366.4" class="st2" width="343.8" height="290.5"/>
<path class="st6" d="M120.6-75.9v-290.5"/>
<rect x="46.6" y="-366.4" class="st2" width="343.8" height="290.5"/>
<path class="st6" d="M237.2-75.9v-290.5"/>
<rect x="46.6" y="-366.4" class="st2" width="343.8" height="290.5"/>
<path class="st6" d="M353.8-75.9v-290.5"/>
<rect x="46.6" y="-366.4" class="st2" width="343.8" height="290.5"/>
<path class="st3" d="M46.6-93.2h343.8"/>
<path class="st4" d="M46.6-93.2"/>
<path id="m7e145e3c17" class="st5" d="M46.6-93.2h-2.8"/>
<text transform="matrix(1 0 0 1 19.6196 -89.8992)" style="fill:#4D4D4D; font-family:'LucidaGrande'; font-size:8.8px;">1990</text>
<rect x="46.6" y="-366.4" class="st2" width="343.8" height="290.5"/>
<path class="st3" d="M46.6-184.6h343.8"/>
<path class="st4" d="M46.6-184.6"/>
<path id="m7e145e3c17_00000000910606325705315890000011397456985029938589_" class="st5" d="M46.6-184.6h-2.8"/>
<text transform="matrix(1 0 0 1 19.6196 -181.2739)" style="fill:#4D4D4D; font-family:'LucidaGrande'; font-size:8.8px;">2000</text>
<rect x="46.6" y="-366.4" class="st2" width="343.8" height="290.5"/>
<path class="st3" d="M46.6-276h343.8"/>
<path class="st4" d="M46.6-276"/>
<path id="m7e145e3c17_00000057127359746012090370000016373682960511939755_" class="st5" d="M46.6-276h-2.8"/>
<text transform="matrix(1 0 0 1 19.6196 -272.6486)" style="fill:#4D4D4D; font-family:'LucidaGrande'; font-size:8.8px;">2010</text>
<rect x="46.6" y="-366.4" class="st2" width="343.8" height="290.5"/>
<path class="st6" d="M46.6-138.9h343.8"/>
<rect x="46.6" y="-366.4" class="st2" width="343.8" height="290.5"/>
<path class="st6" d="M46.6-230.3h343.8"/>
<rect x="46.6" y="-366.4" class="st2" width="343.8" height="290.5"/>
<path class="st6" d="M46.6-321.7h343.8"/>
<rect x="46.6" y="-366.4" class="st2" width="343.8" height="290.5"/>
<path class="st7" d="M62.3-89.1v-8.2h93.3v8.2H62.3z"/>
<rect x="46.6" y="-366.4" class="st2" width="343.8" height="290.5"/>
<path class="st7" d="M62.3-107.4v-8.2h202.9v8.2H62.3z"/>
<rect x="46.6" y="-366.4" class="st2" width="343.8" height="290.5"/>
<path class="st8" d="M62.3-125.7v-8.2h84v8.2H62.3z"/>
<rect x="46.6" y="-366.4" class="st2" width="343.8" height="290.5"/>
<path class="st8" d="M62.3-144v-8.2h81.6v8.2H62.3z"/>
<rect x="46.6" y="-366.4" class="st2" width="343.8" height="290.5"/>
<path class="st8" d="M62.3-162.2v-8.2h137.6v8.2H62.3z"/>
<rect x="46.6" y="-366.4" class="st2" width="343.8" height="290.5"/>
<path class="st8" d="M62.3-180.5v-8.2h112v8.2H62.3z"/>
<rect x="46.6" y="-366.4" class="st2" width="343.8" height="290.5"/>
<path class="st8" d="M62.3-198.8v-8.2h4.7v8.2H62.3z"/>
<rect x="46.6" y="-366.4" class="st2" width="343.8" height="290.5"/>
<path class="st7" d="M62.3-217.1v-8.2h58.3v8.2H62.3z"/>
<rect x="46.6" y="-366.4" class="st2" width="343.8" height="290.5"/>
<path class="st7" d="M62.3-235.3v-8.2h237.9v8.2H62.3z"/>
<rect x="46.6" y="-366.4" class="st2" width="343.8" height="290.5"/>
<path class="st7" d="M62.3-253.6v-8.2h256.6v8.2H62.3z"/>
<rect x="46.6" y="-366.4" class="st2" width="343.8" height="290.5"/>
<path class="st7" d="M62.3-271.9v-8.2h9.3v8.2H62.3z"/>
<rect x="46.6" y="-366.4" class="st2" width="343.8" height="290.5"/>
<path class="st7" d="M62.3-290.2v-8.2h35v8.2H62.3z"/>
<rect x="46.6" y="-366.4" class="st2" width="343.8" height="290.5"/>
<path class="st8" d="M62.3-308.4v-8.2h70v8.2H62.3z"/>
<rect x="46.6" y="-366.4" class="st2" width="343.8" height="290.5"/>
<path class="st8" d="M62.3-326.7v-8.2h28v8.2H62.3z"/>
<rect x="46.6" y="-366.4" class="st2" width="343.8" height="290.5"/>
<path class="st7" d="M62.3-345v-8.2h312.6v8.2H62.3z"/>
<path class="st9" d="M404.3-196.7h51.5v-48.9h-51.5V-196.7z"/>
<text transform="matrix(1 0 0 1 405.284 -236.2767)" style="font-family:'LucidaGrande'; font-size:11px;">in_power</text>
<polyline class="st2" points="405.3,-215.5 405.3,-231.4 421.1,-231.4 421.1,-215.5 "/>
<path class="st10" d="M405.3-215.5h15.8v-15.8h-15.8V-215.5z"/>
<polyline class="st2" points="405.3,-215.5 405.3,-231.4 421.1,-231.4 421.1,-215.5 "/>
<path class="st7" d="M405.3-215.5h15.8v-15.8h-15.8V-215.5z"/>
<text transform="matrix(1 0 0 1 423.4753 -221.0309)" style="font-family:'LucidaGrande'; font-size:8.8px;">no</text>
<polyline class="st2" points="405.3,-197.7 405.3,-213.5 421.1,-213.5 421.1,-197.7 "/>
<path class="st10" d="M405.3-197.7h15.8v-15.8h-15.8V-197.7z"/>
<polyline class="st2" points="405.3,-197.7 405.3,-213.5 421.1,-213.5 421.1,-197.7 "/>
<path class="st8" d="M405.3-197.7h15.8v-15.8h-15.8V-197.7z"/>
<text transform="matrix(1 0 0 1 424.0385 -203.1909)" style="font-family:'LucidaGrande'; font-size:8.8px;">yes</text>
</svg>
