<?xml version="1.0" encoding="utf-8"?>
<!-- Generator: Adobe Illustrator 28.2.0, SVG Export Plug-In . SVG Version: 6.00 Build 0)  -->
<svg version="1.1" id="Layer_1" xmlns="http://www.w3.org/2000/svg" xmlns:xlink="http://www.w3.org/1999/xlink" x="0px" y="0px"
	 viewBox="0 0 498.9 779" style="enable-background:new 0 0 498.9 779;" xml:space="preserve">
<style type="text/css">
	.st0{opacity:0.46;fill:#FFFF9B;}
	.st1{fill:#B7C9DB;}
	.st2{fill:#4C78A6;}
	.st3{font-family:'Helvetica';}
	.st4{font-size:12px;}
	.st5{font-family:'Helvetica-Bold';}
	.st6{font-family:'GranthaSangamMN-Bold';}
	.st7{fill:none;}
	.st8{fill:#FFFF9B;stroke:#888888;stroke-width:2;stroke-miterlimit:10;}
</style>
<rect x="29.5" y="490.5" class="st0" width="118.7" height="18"/>
<rect x="48.1" y="210.8" class="st0" width="107.3" height="18"/>
<rect x="48.1" y="150.5" class="st0" width="107.3" height="18"/>
<rect x="48.1" y="110.5" class="st0" width="107.3" height="18"/>
<path pointer-events="none" d="M89.8,27.3"/>
<path class="st1" d="M163.2,30.5h270v18h-270V30.5z"/>
<path class="st2" d="M163.2,50.5h264v18h-264V50.5z"/>
<path class="st1" d="M163.2,70.5h248.6v18H163.2V70.5z"/>
<path class="st1" d="M163.2,90.5h247.7v18H163.2V90.5z"/>
<path class="st1" d="M163.2,110.5h246v18h-246V110.5z"/>
<path class="st1" d="M163.2,130.5h238.3v18H163.2V130.5z"/>
<path class="st2" d="M163.2,150.5h232.3v18H163.2V150.5z"/>
<path class="st2" d="M163.2,210.5h214.3v18H163.2V210.5z"/>
<path class="st1" d="M163.2,170.5H380v18H163.2V170.5z"/>
<path class="st1" d="M163.2,190.5h215.1v18H163.2V190.5z"/>
<path class="st1" d="M163.2,230.5H374v18H163.2V230.5z"/>
<path class="st1" d="M163.2,250.5h206.6v18H163.2V250.5z"/>
<path class="st1" d="M163.2,270.5h198v18h-198V270.5z"/>
<path class="st1" d="M163.2,290.5h195.4v18H163.2V290.5z"/>
<path class="st1" d="M163.2,310.5h188.6v18H163.2V310.5z"/>
<path class="st1" d="M163.2,330.5H350v18H163.2V330.5z"/>
<path class="st1" d="M163.2,350.5h184.3v18H163.2V350.5z"/>
<path class="st2" d="M163.2,370.5h180v18h-180V370.5z"/>
<path class="st1" d="M163.2,390.5h176.6v18H163.2V390.5z"/>
<path class="st1" d="M163.2,410.5h173.1v18H163.2V410.5z"/>
<path class="st1" d="M163.2,430.5H332v18H163.2V430.5z"/>
<path class="st1" d="M163.2,450.5h167.1v18H163.2V450.5z"/>
<path class="st1" d="M163.2,470.5h166.3v18H163.2V470.5z"/>
<path class="st2" d="M163.2,490.5h165.4v18H163.2V490.5z"/>
<path class="st1" d="M163.2,510.5h163.7v18H163.2V510.5z"/>
<path class="st1" d="M163.2,530.5h159.4v18H163.2V530.5z"/>
<path class="st1" d="M163.2,550.5h149.1v18H163.2V550.5z"/>
<path class="st1" d="M163.2,570.5h147.4v18H163.2V570.5z"/>
<path class="st1" d="M163.2,590.5h138v18h-138V590.5z"/>
<path class="st1" d="M163.2,610.5h138v18h-138V610.5z"/>
<path class="st1" d="M163.2,630.5h130.3v18H163.2V630.5z"/>
<path class="st1" d="M163.2,650.5h124.3v18H163.2V650.5z"/>
<path class="st1" d="M163.2,670.5h115.7v18H163.2V670.5z"/>
<path class="st1" d="M163.2,690.5h96v18h-96V690.5z"/>
<path class="st1" d="M163.2,710.5h89.1v18h-89.1V710.5z"/>
<path class="st1" d="M163.2,730.5h64.3v18h-64.3V730.5z"/>
<text transform="matrix(1 0 0 1 119.4184 43.3916)" class="st3 st4">31.5%</text>
<text transform="matrix(1 0 0 1 119.4184 63.3916)" class="st3 st4">30.8</text>
<text transform="matrix(1 0 0 1 119.4184 83.3916)" class="st3 st4">29.0</text>
<text transform="matrix(1 0 0 1 119.4184 103.3916)" class="st3 st4">28.9</text>
<text transform="matrix(1 0 0 1 72.1632 43.1641)" class="st3 st4">France</text>
<text transform="matrix(1 0 0 1 70.1535 63.1641)" class="st3 st4">Finland</text>
<text transform="matrix(1 0 0 1 66.1574 83.1641)" class="st3 st4">Belgium</text>
<text transform="matrix(1 0 0 1 87.5031 103.1641)" class="st3 st4">Italy</text>
<text transform="matrix(1 0 0 1 72.1632 143.1641)" class="st3 st4">Austria</text>
<text transform="matrix(1 0 0 1 64.1652 163.1641)" class="st5 st4">Sweden</text>
<text transform="matrix(1 0 0 1 60.1632 203.1641)" class="st3 st4">Germany</text>
<text transform="matrix(1 0 0 1 68.8354 223.1641)" class="st5 st4">Norway</text>
<text transform="matrix(1 0 0 1 70.1593 183.1641)" class="st3 st4">Greece</text>
<text transform="matrix(1 0 0 1 78.8195 243.1641)" class="st3 st4">Spain</text>
<text transform="matrix(1 0 0 1 64.8156 263.1641)" class="st3 st4">Portugal</text>
<text transform="matrix(1 0 0 1 76.8156 283.1641)" class="st3 st4">Japan</text>
<text transform="matrix(1 0 0 1 63.4796 303.1641)" class="st3 st4">Slovenia</text>
<text transform="matrix(1 0 0 1 44.8058 323.1641)" class="st3 st4">Netherlands</text>
<text transform="matrix(1 0 0 1 42.8019 343.1641)" class="st3 st4">Luxembourg</text>
<text transform="matrix(1 0 0 1 75.4972 363.1641)" class="st3 st4">Britain</text>
<text transform="matrix(1 0 0 1 35.4894 383.1641)" class="st5 st4">O.E.C.D. avg.</text>
<text transform="matrix(1 0 0 1 64.1535 403.1641)" class="st3 st4">Hungary</text>
<text transform="matrix(1 0 0 1 72.1457 423.1641)" class="st3 st4">Poland</text>
<text transform="matrix(1 0 0 1 47.4835 443.1641)" class="st3 st4">Switzerland</text>
<text transform="matrix(1 0 0 1 38.8058 463.1641)" class="st3 st4">New Zealand</text>
<text transform="matrix(1 0 0 1 25.4699 483.1641)" class="st3 st4">Czech Republic</text>
<text transform="matrix(1 0 0 1 37.4699 503.1641)" class="st5 st4">United States</text>
<text transform="matrix(1 0 0 1 62.8234 523.1641)" class="st3 st4">Australia</text>
<text transform="matrix(1 0 0 1 64.1535 543.1641)" class="st3 st4">Slovakia</text>
<text transform="matrix(1 0 0 1 69.4855 563.1641)" class="st3 st4">Estonia</text>
<text transform="matrix(1 0 0 1 67.4757 583.1641)" class="st3 st4">Canada</text>
<text transform="matrix(1 0 0 1 72.8195 603.1641)" class="st3 st4">Ireland</text>
<text transform="matrix(1 0 0 1 80.1671 623.1641)" class="st3 st4">Israel</text>
<text transform="matrix(1 0 0 1 70.8156 643.1641)" class="st3 st4">Iceland</text>
<text transform="matrix(1 0 0 1 77.4894 663.1641)" class="st3 st4">Latvia</text>
<text transform="matrix(1 0 0 1 73.2765 683.1641)" class="st3 st4">Turkey</text>
<text transform="matrix(1 0 0 1 82.1652 703.1641)" class="st3 st4">Chile</text>
<text transform="matrix(1 0 0 1 42.796 723.1641)" class="st3 st4">South Korea</text>
<text transform="matrix(1 0 0 1 71.5011 743.1641)" class="st3 st4">Mexico</text>
<text transform="matrix(1 0 0 1 58.1535 123.0796)" class="st5 st4">Denmark</text>
<text transform="matrix(1 0 0 1 119.4184 122.9272)" class="st6 st4">28.7</text>
<text transform="matrix(1 0 0 1 119.4184 143.3916)" class="st3 st4">27.8</text>
<text transform="matrix(1 0 0 1 119.4184 163.3916)" class="st5 st4">27.1</text>
<text transform="matrix(1 0 0 1 119.4184 223.3916)" class="st5 st4">25.1</text>
<text transform="matrix(1 0 0 1 119.4186 183.3916)" class="st3 st4">27.0</text>
<text transform="matrix(1 0 0 1 119.4186 203.3916)" class="st3 st4">25.3</text>
<text transform="matrix(1 0 0 1 119.4186 243.3916)" class="st3 st4">24.6</text>
<text transform="matrix(1 0 0 1 119.4184 263.3916)" class="st3 st4">24.1</text>
<text transform="matrix(1 0 0 1 119.4184 283.3916)" class="st3 st4">23.1</text>
<text transform="matrix(1 0 0 1 119.4186 303.3916)" class="st3 st4">22.8</text>
<text transform="matrix(1 0 0 1 119.4184 323.3916)" class="st3 st4">22.0</text>
<text transform="matrix(1 0 0 1 119.4186 343.3916)" class="st3 st4">21.8</text>
<text transform="matrix(1 0 0 1 119.4184 363.3916)" class="st3 st4">21.5</text>
<text transform="matrix(1 0 0 1 119.4184 383.3916)" class="st5 st4">21.0</text>
<text transform="matrix(1 0 0 1 119.4184 403.3916)" class="st3 st4">20.6</text>
<text transform="matrix(1 0 0 1 119.4186 423.3916)" class="st3 st4">20.2</text>
<text transform="matrix(1 0 0 1 119.4186 443.3916)" class="st3 st4">19.7</text>
<text transform="matrix(1 0 0 1 119.4185 463.3916)" class="st3 st4">19.5</text>
<text transform="matrix(1 0 0 1 119.4183 483.3916)" class="st3 st4">19.4</text>
<text transform="matrix(1 0 0 1 119.4187 503.3916)" class="st5 st4">19.3</text>
<text transform="matrix(1 0 0 1 119.4187 523.3916)" class="st3 st4">19.1</text>
<text transform="matrix(1 0 0 1 119.4186 543.3916)" class="st3 st4">18.6</text>
<text transform="matrix(1 0 0 1 119.4185 563.3916)" class="st3 st4">17.4</text>
<text transform="matrix(1 0 0 1 119.4186 583.3916)" class="st3 st4">17.2</text>
<text transform="matrix(1 0 0 1 119.4182 603.3916)" class="st3 st4">16.1</text>
<text transform="matrix(1 0 0 1 119.4182 623.3916)" class="st3 st4">16.1</text>
<text transform="matrix(1 0 0 1 119.4183 643.3916)" class="st3 st4">15.2</text>
<text transform="matrix(1 0 0 1 119.4183 663.3916)" class="st3 st4">14.5</text>
<text transform="matrix(1 0 0 1 119.4187 683.3916)" class="st3 st4">13.5</text>
<text transform="matrix(1 0 0 1 119.4182 703.3916)" class="st3 st4">11.2</text>
<text transform="matrix(1 0 0 1 119.4185 723.3916)" class="st3 st4">10.4</text>
<text transform="matrix(1 0 0 1 119.4183 743.3916)" class="st3 st4">7.5</text>
<path d="M117.7,22"/>
<rect x="123.2" y="118.8" class="st7" width="19.5" height="0"/>
<line class="st7" x1="469.6" y1="-8.9" x2="470.3" y2="-8.9"/>
<line class="st7" x1="33" y1="370.5" x2="36.1" y2="370.5"/>
<line class="st7" x1="395.4" y1="370.5" x2="398.5" y2="370.5"/>
<line class="st8" x1="26" y1="369.8" x2="410.9" y2="369.8"/>
<line class="st8" x1="369.7" y1="368.5" x2="369.7" y2="370.5"/>
<line class="st8" x1="26" y1="388.5" x2="410.9" y2="388.5"/>
</svg>
